<svg xmlns="http://www.w3.org/2000/svg" viewBox="0 0 473.17 473.21"><defs><style>.cls-1{fill:#f2be1a;}.cls-2{fill:#1a1a1a;}.cls-3{fill:#19191a;}.cls-4{fill:#191818;}.cls-5{fill:#191919;}.cls-6{fill:#1a1915;}</style></defs><g id="Layer_2" data-name="Layer 2"><g id="Layer_1-2" data-name="Layer 1"><path class="cls-1" d="M270.63,470.72c-2.34.36-4.68.81-7,1-4.42.45-8.85.92-13.29,1.13q-7.87.36-15.77.29c-5.35,0-10.71-.13-16-.6-6.7-.59-13.36-1.56-20-2.43-2.08-.27-4.12-.75-6.17-1.13l.84-.13q-12.36-33.52-24.71-67.06a7.36,7.36,0,0,0-.76.43c-7.57,5.57-15.1,11.21-22.72,16.72-8,5.77-16.08,11.43-24.14,17.11-1.86,1.31-3.79,2.51-5.69,3.77-3.52-2.25-7.16-4.32-10.52-6.78q-10.5-7.66-20.73-15.69A190.05,190.05,0,0,1,63.43,398,228.46,228.46,0,0,1,42,371.57a238.11,238.11,0,0,1-20.17-35.1A223.39,223.39,0,0,1,5.64,288.72c-1.51-7-2.63-14.15-3.7-21.26a133,133,0,0,1-1.4-14.1C.19,244.77,0,236.16,0,227.57a127,127,0,0,1,1.07-14.3c.81-6.82,1.72-13.63,2.86-20.4a208.76,208.76,0,0,1,6.68-27.06,230.87,230.87,0,0,1,16.52-39.66,237.1,237.1,0,0,1,22.5-34.8A227.2,227.2,0,0,1,74.7,63.91c6-5.52,12.29-10.72,18.71-15.75A221.8,221.8,0,0,1,134.87,22.8a228.49,228.49,0,0,1,49.8-17.15C191.37,4.19,198.15,3,204.94,2c5.37-.78,10.8-1.2,16.22-1.48C228.06.18,235-.06,241.87,0a160.41,160.41,0,0,1,17,1.09c8.49,1,17,2.15,25.38,3.71a195.47,195.47,0,0,1,36.34,10.52c7.14,2.84,14.22,5.87,21.13,9.23a224.25,224.25,0,0,1,38,23.56,187.58,187.58,0,0,1,19.55,16.73c5.15,5.19,10.31,10.4,15.23,15.82A216.39,216.39,0,0,1,440.16,116a233.27,233.27,0,0,1,18.43,38.69,203.33,203.33,0,0,1,8.11,27c1.51,6.93,2.89,13.91,3.92,20.92,1,6.57,1.56,13.2,2,19.83.41,6,.61,12.11.52,18.17s-.62,11.89-1,17.82a208.28,208.28,0,0,1-3.94,26.78,230.66,230.66,0,0,1-13,42.06,224.4,224.4,0,0,1-24.47,44.58c-5,7.05-10.48,13.82-16.08,20.43-4.49,5.3-9.34,10.32-14.34,15.15-4.78,4.61-9.89,8.9-15,13.18a214.06,214.06,0,0,1-29.17,20.29,212.28,212.28,0,0,1-24.33,12.39c-3.14,1.33-6.32,2.6-9.49,3.89a43.25,43.25,0,0,1-3.45-2.89,65.25,65.25,0,0,1-6.55-7.08c-1.91-2.62-3.21-5.67-4.88-8.47a45.48,45.48,0,0,1-6.84-23.32c0-2.37.55-4.74.49-7.1q-.27-10.54-.84-21.08c-.23-4.4-1.24-8.78-.5-13.2.38-2.27.64-4.74,1.73-6.67,2.51-4.42,5.57-8.52,8.29-12.83a103,103,0,0,0,6.5-11.09c2.06-4.45,3.48-9.19,5.21-13.79,2.52-6.7,5-13.4,7.63-20.06,1.26-3.22,3-3.93,6.19-2.8a5.32,5.32,0,0,0,5.69-1.23,21.17,21.17,0,0,0,5.6-7.48c1.76-4.2,3.34-8.47,4.9-12.75,4.11-11.32,8.24-22.64,12.23-34a22.61,22.61,0,0,0,.41-14.6c-1.37-4.31-3.6-5.18-7.38-5.32a31.36,31.36,0,0,0-3.21.23,12.41,12.41,0,0,1,.5-3.2c2.56-5.27,2-10.68,1.2-16.22s-1.33-11-1.79-16.56a39.7,39.7,0,0,1,.25-6.44c.25-3.08.44-6.18.93-9.22.9-5.57,1.84-11.14,3.05-16.65,1.84-8.41,3.62-16.86,6-25.12a134.37,134.37,0,0,1,6.78-17.84c1.57-3.49,4.05-6.58,6.18-9.81a2.12,2.12,0,0,0,.05-2.58c-1.42-2.25-2.75-4.55-4.21-6.77-1-1.45-1.78-3.11-3.77-3.54-.29-.06-.55-.47-.77-.76-5.54-7.46-11.43-14.68-15.67-23a11.94,11.94,0,0,0-8.36-6.44c-2.85-.68-5.64-1.57-8.45-2.41-12.71-3.78-25.44-7.54-38.13-11.4-5.42-1.64-11-2.8-16.15-5.31a12.46,12.46,0,0,0-4.34-1.39c-5.59-.42-11.2-.74-16.8-.85-3.32-.07-6.64.32-10,.5-2,.11-3.94.4-5.93-.27-4.05-1.37-7.6-.65-10.56,2.66a19.7,19.7,0,0,1-8.29,5,3.31,3.31,0,0,1-3.4-.31,3.71,3.71,0,0,0-3.76-.41c-3.27,1.52-6.58,3-9.68,4.83-6.71,4-13.32,8.1-19.92,12.24a54.34,54.34,0,0,1-12.73,5.52c-8.34,2.64-13.46,8.95-16.71,16.71-1.7,4-2.55,8.42-3.82,12.79l-1-.21a5,5,0,0,0-5.58,2,20.19,20.19,0,0,0-2.36,5.45c-1,4.65-1.7,9.37-2.3,14.09-.68,5.42-1.22,10.88-1.64,16.33-.27,3.45-.22,6.93-.33,10.39-.07,1.87-.19,3.74-.28,5.6-.19,3.93-.41,7.85-.56,11.78-.13,3.7-.2,7.4-.29,11.1-.1,4.46-.22,8.91-.27,13.36,0,3.95-.07,7.91,0,11.86a10,10,0,0,0,.78,2.58l.66,0a25.8,25.8,0,0,0,1.95-3.09c1.63-3.5,2.84-7.23,4.79-10.54a69.77,69.77,0,0,1,7.12-9.67,87.83,87.83,0,0,1,18.46-16.81c2.65-1.75,5.61-3.27,7.7-5.56,4.94-5.4,6.44-12.15,5.8-19.29-.26-2.77-1.37-5.46-2.12-8.27a4.12,4.12,0,0,1,.43-.24c9.71-4.46,19.37-9,29.15-13.35q12.31-5.41,24.86-10.27a28.69,28.69,0,0,1,14.25-1.45c3.06.4,6.13.73,9.21.87,3.24.15,6.5.09,9.75,0a41.56,41.56,0,0,1,13.1,2.08,139.35,139.35,0,0,1,24.67,10.69c8.06,4.31,14.66,10.27,18.75,18.58,3.48,7.09,6.6,14.36,9.92,21.53a4.45,4.45,0,0,1-.46,4.74,35.92,35.92,0,0,1-2.63,3.47,23.54,23.54,0,0,0-5.83,10.4,14.23,14.23,0,0,1-1.63,3.84,2.47,2.47,0,0,0-.11,2.61c.76,1.53,1.49,3.08,2.25,4.61a12.54,12.54,0,0,1,1.52,7.72c-.47,2.94-1,5.88-1.48,8.91a14.23,14.23,0,0,1-2,0c-3.52-.49-7-1.1-10.55-1.52-4.83-.59-9.67-1.3-14.52-1.49-5.29-.21-10.6.18-15.91.19-4.52,0-9.09.46-13.38-1.77-1.69-.88-3,.17-3.16,2.1-.15,2.57-.25,5.14-.28,7.71,0,3.39-.2,6.79,0,10.16.26,3.82.78,7.62,1.39,11.4.81,5,1.77,10.08,2.76,15.1.57,2.87,1.65,5.67,1.95,8.56a44.93,44.93,0,0,0,4.17,15.6,41.46,41.46,0,0,1,2.2,5.24c.56,1.66,0,2.64-1.7,3a18.28,18.28,0,0,1-3.63.3,4.15,4.15,0,0,0-4.08,2.63,30.1,30.1,0,0,1-1.54,3.12c-.82,1.39-1.81,2.74-3.53,3-2.21.31-4.45.48-6.68.57-2.4.1-4.8,0-7.2,0a13.12,13.12,0,0,1-2.86.07c-3-.64-5.87-1.44-8.8-2.15a13.19,13.19,0,0,0-7.47,0c-2.09.7-2.8,2.45-3.11,4.29-.25,1.48.94,2.43,2.06,3.25.26.19.56.35.81.55,2.77,2.16,5.66,4.18,8.25,6.53s1.83,5.23-1.58,6.4c-3.14,1.08-6.35.53-9.51.46-4.2-.1-8.39-.52-12.58-.81a10.89,10.89,0,0,1-5.15-1.36,59,59,0,0,0-6.67-3.16c-1.4-.62-2.89-1-4.28-1.69-1.86-.88-2-1.92-1-3.74a3.35,3.35,0,0,0,.43-2.44,5.72,5.72,0,0,1,1.16-6.25c3.87-4.66,7.86-9.21,11.76-13.84,1-1.14,1.77-2.42,2.73-3.77-3.25-.5-3.24-.47-5,.25A59.77,59.77,0,0,0,198.43,288c-4.68,4-9.86,7.46-14.8,11.2a7.69,7.69,0,0,0-3.39,6.87c.3,3.85.89,7.69,1.42,11.52,1,7.13,2.06,14.24,3.05,21.37a3.29,3.29,0,0,0,1.94,2.71,1.74,1.74,0,0,0,2.6-1.49,7.42,7.42,0,0,0,0-1.7c-.76-4.22-1.34-8.48-2.38-12.63-.9-3.58,2.22-7.57,5-7.95a15.74,15.74,0,0,1,5.51.28,18.09,18.09,0,0,1,9.13,4.61,64.27,64.27,0,0,0,5.65,5.05,2.9,2.9,0,0,0,2.5.53,3,3,0,0,0,1.13-2.32c.07-1.93-.17-3.87-.3-6.22,3.31,0,6.58-.1,9.85,0,2.78.12,5.56.55,8.34.8,4.62.4,9.24.82,13.86,1.11,4.3.28,8.61.39,12.92.61a29.09,29.09,0,0,1,3.49.38c5.55,1,10.39,3.52,14.95,6.71.57.39,1.22.69,1.83,1-8.84,5.36-17.9,5.85-27.52,5.22,2.63,1.8,5,3.39,7.74,4.18a12.6,12.6,0,0,1,4.23,1.66c1.14.89,1.78,2.42,2.64,3.66-1,.91-2,1.81-3.08,2.7a.8.8,0,0,1-.53.14c-1.93,0-3.87,0-5.8-.1-4.55-.3-9.09-.68-13.64-1-3.32-.25-6.66-.37-10-.74-2.38-.26-4.56-.14-6.64,1.67.87,1.12,1.52,2.69,2.69,3.37,7.88,4.59,15.7,9.3,24.58,11.9a38.61,38.61,0,0,1,8.88,4c2.92,1.76,3.2,4.5,1.14,7.21-3.89,5.13-10.7,8.55-18.3,6a24.22,24.22,0,0,0-15.9.33,28.38,28.38,0,0,1-8.07,1.46,25.07,25.07,0,0,1-6.76-1.06c-4.13-1-8-2.61-10.67-6.18a1.19,1.19,0,0,0-.92-.42,7.8,7.8,0,0,1-6.37-1.87c-6-5-12.1-9.94-17.93-15.16-4.65-4.17-9-8.72-13.45-13.1-.26-.26-.49-.65-.82-.76a3.33,3.33,0,0,0-1.94-.29c-.4.14-.69,1-.71,1.59a34.51,34.51,0,0,0,.25,3.51,16.5,16.5,0,0,0,2.44,8.29,39,39,0,0,1,3.42,7.3c.72,1.8,1,3.79,1.72,5.59,2.22,5.48,4.51,10.93,6.91,16.33,2,4.5,4,9.05,6.4,13.35,4.12,7.38,10.32,13,16.83,18.16a43.42,43.42,0,0,1,13.29,17.09,7.64,7.64,0,0,1,.68,2.4q.63,9,1.13,18c.18,3.23.21,6.46.32,9.69a9.21,9.21,0,0,0,.15,1.13c9.09.71,18,1.29,26.81,2.11S261.73,469.76,270.63,470.72Zm-51.2-256.08a12.33,12.33,0,0,1-3,1.39c-2.85.53-5.74.9-8.63,1.18-6,.57-11.15,3.15-16.2,6.09-1.77,1-1.61,2.79.18,3.73a3.52,3.52,0,0,0,3.48-.14,16.64,16.64,0,0,1,8.85-1.72c2.18.11,4.38.25,6.54.55,2.89.41,5.75,1,8.62,1.51l.08.58a37,37,0,0,1-4.29,1.79c-2,.55-4.12.78-6.16,1.26-1.87.45-3.93.55-5.56,2.83a10.08,10.08,0,0,0,2.53,1.83c3.89,1.26,7.77,2.82,11.78,3.35,4.72.63,9.57.3,14.36.39a32.44,32.44,0,0,0,15-3.53,8.52,8.52,0,0,0,5-6.18c.5-2.41,1.11-4.8,1.66-7.2,1.14-4.92,2.58-9.73,5.39-14,1.52-2.3,1.52-2.29-.21-4.42a6,6,0,0,0-5.32-2.57,5.31,5.31,0,0,1-2.92-.77c-2.1-1.29-4.45-1.32-6.72-1.39-7.56-.22-15.12-.22-22.69-.33-3.7-.06-7.4-.19-11.09-.29h-.43c-4.62-.19-9.25-.43-13.87-.54-1.85,0-2.55,1.56-3.31,2.89A2.51,2.51,0,0,0,193,204c1.72,2.14,1.49,3-1,4.26-1.94,1-3.85,2.05-5.84,2.94a8.43,8.43,0,0,0-4.82,6.06,28.26,28.26,0,0,0,3.61-.48c6.3-1.65,12.57-3.43,18.88-5,3.23-.82,6.42-2.09,9.9-1.31C216.14,211,218.86,211,219.43,214.64Zm-82.83,5c.16-2.12-1.16-2.9-2.79-3.51-2.82-1.06-5.6-2.21-8.4-3.33-3.27-1.29-3.68-1.17-5.67,1.76-.14.2-.23.41-.35.61-2.72,4.44-3.25,9.46-3.75,14.46-.07.67.73,1.6,1.37,2.11a2,2,0,0,0,1.79-.23,8.36,8.36,0,0,0,2.1-2.34c1.64-2.9,3.12-5.89,4.75-8.79a2.65,2.65,0,0,1,3.49-1.49,23,23,0,0,1,3.45,1.07A4.53,4.53,0,0,0,136.6,219.67ZM130.38,252c2.9-.94,3-1,4.87-2.93.72-.75,1.44-1.49,2.17-2.23a19.37,19.37,0,0,0,5.32-8.9c.25-.95.45-1.84-.74-2.34a6.47,6.47,0,0,0-7.26,2.09c-1.38,2.11-2.51,4.38-4,6.42C128.92,246.67,128.32,249.17,130.38,252ZM141,225l-2.85-3.42-1.53,1.2,2.1,4.36Z"/><path class="cls-2" d="M270.63,470.72c-8.9-1-17.8-2-26.71-2.85s-17.72-1.4-26.81-2.11a9.21,9.21,0,0,1-.15-1.13c-.11-3.23-.14-6.46-.32-9.69q-.49-9-1.13-18a7.64,7.64,0,0,0-.68-2.4,43.42,43.42,0,0,0-13.29-17.09c-6.51-5.18-12.71-10.78-16.83-18.16-2.4-4.3-4.39-8.85-6.4-13.35-2.4-5.4-4.69-10.85-6.91-16.33-.74-1.8-1-3.79-1.72-5.59a39,39,0,0,0-3.42-7.3,16.5,16.5,0,0,1-2.44-8.29,34.51,34.51,0,0,1-.25-3.51c0-.56.31-1.45.71-1.59a3.33,3.33,0,0,1,1.94.29c.33.11.56.5.82.76,4.47,4.38,8.8,8.93,13.45,13.1,5.83,5.22,11.91,10.17,17.93,15.16a7.8,7.8,0,0,0,6.37,1.87,1.19,1.19,0,0,1,.92.42c2.69,3.57,6.54,5.16,10.67,6.18a25.07,25.07,0,0,0,6.76,1.06,28.38,28.38,0,0,0,8.07-1.46,24.22,24.22,0,0,1,15.9-.33c7.6,2.5,14.41-.92,18.3-6,2.06-2.71,1.78-5.45-1.14-7.21a38.61,38.61,0,0,0-8.88-4c-8.88-2.6-16.7-7.31-24.58-11.9-1.17-.68-1.82-2.25-2.69-3.37,2.08-1.81,4.26-1.93,6.64-1.67,3.31.37,6.65.49,10,.74,4.55.34,9.09.72,13.64,1,1.93.12,3.87.08,5.8.1a.8.8,0,0,0,.53-.14c1-.89,2.06-1.79,3.08-2.7-.86-1.24-1.5-2.77-2.64-3.66a12.6,12.6,0,0,0-4.23-1.66c-2.79-.79-5.11-2.38-7.74-4.18,9.62.63,18.68.14,27.52-5.22-.61-.34-1.26-.64-1.83-1-4.56-3.19-9.4-5.74-14.95-6.71a29.09,29.09,0,0,0-3.49-.38c-4.31-.22-8.62-.33-12.92-.61-4.62-.29-9.24-.71-13.86-1.11-2.78-.25-5.56-.68-8.34-.8-3.27-.14-6.54,0-9.85,0,.13,2.35.37,4.29.3,6.22a3,3,0,0,1-1.13,2.32,2.9,2.9,0,0,1-2.5-.53,64.27,64.27,0,0,1-5.65-5.05,18.09,18.09,0,0,0-9.13-4.61,15.74,15.74,0,0,0-5.51-.28c-2.76.38-5.88,4.37-5,7.95,1,4.15,1.62,8.41,2.38,12.63a7.42,7.42,0,0,1,0,1.7,1.74,1.74,0,0,1-2.6,1.49,3.29,3.29,0,0,1-1.94-2.71c-1-7.13-2.05-14.24-3.05-21.37-.53-3.83-1.12-7.67-1.42-11.52a7.69,7.69,0,0,1,3.39-6.87c4.94-3.74,10.12-7.17,14.8-11.2a59.77,59.77,0,0,1,16.65-10.12c1.74-.72,1.73-.75,5-.25-1,1.35-1.76,2.63-2.73,3.77-3.9,4.63-7.89,9.18-11.76,13.84a5.72,5.72,0,0,0-1.16,6.25,3.35,3.35,0,0,1-.43,2.44c-1,1.82-.82,2.86,1,3.74,1.39.65,2.88,1.07,4.28,1.69a59,59,0,0,1,6.67,3.16,10.89,10.89,0,0,0,5.15,1.36c4.19.29,8.38.71,12.58.81,3.16.07,6.37.62,9.51-.46,3.41-1.17,4.25-4,1.58-6.4s-5.48-4.37-8.25-6.53c-.25-.2-.55-.36-.81-.55-1.12-.82-2.31-1.77-2.06-3.25.31-1.84,1-3.59,3.11-4.29a13.19,13.19,0,0,1,7.47,0c2.93.71,5.85,1.51,8.8,2.15a13.12,13.12,0,0,0,2.86-.07c2.4,0,4.8.06,7.2,0,2.23-.09,4.47-.26,6.68-.57,1.72-.24,2.71-1.59,3.53-3a30.1,30.1,0,0,0,1.54-3.12,4.15,4.15,0,0,1,4.08-2.63,18.28,18.28,0,0,0,3.63-.3c1.7-.39,2.26-1.37,1.7-3a41.46,41.46,0,0,0-2.2-5.24,44.93,44.93,0,0,1-4.17-15.6c-.3-2.89-1.38-5.69-1.95-8.56-1-5-1.95-10.05-2.76-15.1-.61-3.78-1.13-7.58-1.39-11.4-.23-3.37-.08-6.77,0-10.16,0-2.57.13-5.14.28-7.71.11-1.93,1.47-3,3.16-2.1,4.29,2.23,8.86,1.78,13.38,1.77,5.31,0,10.62-.4,15.91-.19,4.85.19,9.69.9,14.52,1.49,3.53.42,7,1,10.55,1.52a14.23,14.23,0,0,0,2,0c.51-3,1-6,1.48-8.91a12.54,12.54,0,0,0-1.52-7.72c-.76-1.53-1.49-3.08-2.25-4.61a2.47,2.47,0,0,1,.11-2.61,14.23,14.23,0,0,0,1.63-3.84,23.54,23.54,0,0,1,5.83-10.4,35.92,35.92,0,0,0,2.63-3.47,4.45,4.45,0,0,0,.46-4.74c-3.32-7.17-6.44-14.44-9.92-21.53-4.09-8.31-10.69-14.27-18.75-18.58a139.35,139.35,0,0,0-24.67-10.69,41.56,41.56,0,0,0-13.1-2.08c-3.25.08-6.51.14-9.75,0-3.08-.14-6.15-.47-9.21-.87a28.69,28.69,0,0,0-14.25,1.45q-12.52,4.88-24.86,10.27c-9.78,4.3-19.44,8.89-29.15,13.35a4.12,4.12,0,0,0-.43.24c.75,2.81,1.86,5.5,2.12,8.27.64,7.14-.86,13.89-5.8,19.29-2.09,2.29-5,3.81-7.7,5.56A87.83,87.83,0,0,0,156,186.46a69.77,69.77,0,0,0-7.12,9.67c-1.95,3.31-3.16,7-4.79,10.54a25.8,25.8,0,0,1-1.95,3.09l-.66,0a10,10,0,0,1-.78-2.58c-.08-3.95-.06-7.91,0-11.86.05-4.45.17-8.9.27-13.36.09-3.7.16-7.4.29-11.1.15-3.93.37-7.85.56-11.78.09-1.86.21-3.73.28-5.6.11-3.46.06-6.94.33-10.39.42-5.45,1-10.91,1.64-16.33.6-4.72,1.34-9.44,2.3-14.09a20.19,20.19,0,0,1,2.36-5.45,5,5,0,0,1,5.58-2l1,.21c1.27-4.37,2.12-8.76,3.82-12.79,3.25-7.76,8.37-14.07,16.71-16.71a54.34,54.34,0,0,0,12.73-5.52c6.6-4.14,13.21-8.27,19.92-12.24,3.1-1.83,6.41-3.31,9.68-4.83a3.71,3.71,0,0,1,3.76.41,3.31,3.31,0,0,0,3.4.31,19.7,19.7,0,0,0,8.29-5c3-3.31,6.51-4,10.56-2.66,2,.67,3.94.38,5.93.27,3.32-.18,6.64-.57,10-.5,5.6.11,11.21.43,16.8.85a12.46,12.46,0,0,1,4.34,1.39c5.15,2.51,10.73,3.67,16.15,5.31C310,57.47,322.75,61.23,335.46,65c2.81.84,5.6,1.73,8.45,2.41a11.94,11.94,0,0,1,8.36,6.44c4.24,8.36,10.13,15.58,15.67,23,.22.29.48.7.77.76,2,.43,2.81,2.09,3.77,3.54,1.46,2.22,2.79,4.52,4.21,6.77a2.12,2.12,0,0,1-.05,2.58c-2.13,3.23-4.61,6.32-6.18,9.81a134.37,134.37,0,0,0-6.78,17.84c-2.38,8.26-4.16,16.71-6,25.12-1.21,5.51-2.15,11.08-3.05,16.65-.49,3-.68,6.14-.93,9.22a39.7,39.7,0,0,0-.25,6.44c.46,5.53,1,11.07,1.79,16.56s1.36,10.95-1.2,16.22a12.41,12.41,0,0,0-.5,3.2,31.36,31.36,0,0,1,3.21-.23c3.78.14,6,1,7.38,5.32a22.61,22.61,0,0,1-.41,14.6c-4,11.36-8.12,22.68-12.23,34-1.56,4.28-3.14,8.55-4.9,12.75a21.17,21.17,0,0,1-5.6,7.48,5.32,5.32,0,0,1-5.69,1.23c-3.23-1.13-4.93-.42-6.19,2.8-2.59,6.66-5.11,13.36-7.63,20.06-1.73,4.6-3.15,9.34-5.21,13.79a103,103,0,0,1-6.5,11.09c-2.72,4.31-5.78,8.41-8.29,12.83-1.09,1.93-1.35,4.4-1.73,6.67-.74,4.42.27,8.8.5,13.2q.56,10.53.84,21.08c.06,2.36-.5,4.73-.49,7.1a45.48,45.48,0,0,0,6.84,23.32c1.67,2.8,3,5.85,4.88,8.47a65.25,65.25,0,0,0,6.55,7.08,43.25,43.25,0,0,0,3.45,2.89c-3.32,1.22-6.64,2.46-10,3.64a202.78,202.78,0,0,1-26,7.25c-4.47.94-9,1.59-13.5,2.36C272.09,470.52,271.36,470.61,270.63,470.72Zm58.44-202.61v-.47a9.72,9.72,0,0,0-10.37-10.28c-3.77.08-7.52-.07-11.05-1.47-3.33-1.32-6.52-3-9.84-4.29-3.6-1.44-7.25-2.76-11.22-2.73-2.48,0-3.45,1.2-2.9,3.69q2.07,9.4,4.17,18.8c.77,3.49,1.67,6.9,4.6,9.35,4.24,3.55,8.42,7.18,12.69,10.71,2.73,2.26,5.26,1.55,6.7-1.68a22.93,22.93,0,0,1,2.08-3.76c2.15-3.12,5.39-4.86,8.61-6.57C327,277,329.48,273.55,329.07,268.11Z"/><path class="cls-2" d="M115.13,439.87c1.9-1.26,3.83-2.46,5.69-3.77C128.88,430.42,137,424.76,145,419c7.62-5.51,15.15-11.15,22.72-16.72a7.36,7.36,0,0,1,.76-.43q12.38,33.6,24.71,67.06l-.84.13c-5.06-1.08-10.18-1.95-15.16-3.29-6.85-1.84-13.7-3.76-20.35-6.17-7-2.53-13.88-5.42-20.59-8.62C129.05,447.54,122.15,443.58,115.13,439.87Z"/><path class="cls-3" d="M219.43,214.64c-.57-3.65-3.29-3.67-5.74-4.21-3.48-.78-6.67.49-9.9,1.31-6.31,1.6-12.58,3.38-18.88,5a28.26,28.26,0,0,1-3.61.48,8.43,8.43,0,0,1,4.82-6.06c2-.89,3.9-1.95,5.84-2.94,2.49-1.27,2.72-2.12,1-4.26a2.51,2.51,0,0,1-.47-3.06c.76-1.33,1.46-2.93,3.31-2.89,4.62.11,9.25.35,13.87.54h.43c3.69.1,7.39.23,11.09.29,7.57.11,15.13.11,22.69.33,2.27.07,4.62.1,6.72,1.39a5.31,5.31,0,0,0,2.92.77,6,6,0,0,1,5.32,2.57c1.73,2.13,1.73,2.12.21,4.42-2.81,4.27-4.25,9.08-5.39,14-.55,2.4-1.16,4.79-1.66,7.2a8.52,8.52,0,0,1-5,6.18,32.44,32.44,0,0,1-15,3.53c-4.79-.09-9.64.24-14.36-.39-4-.53-7.89-2.09-11.78-3.35a10.08,10.08,0,0,1-2.53-1.83c1.63-2.28,3.69-2.38,5.56-2.83,2-.48,4.14-.71,6.16-1.26a37,37,0,0,0,4.29-1.79l-.08-.58c-2.87-.51-5.73-1.1-8.62-1.51-2.16-.3-4.36-.44-6.54-.55a16.64,16.64,0,0,0-8.85,1.72,3.52,3.52,0,0,1-3.48.14c-1.79-.94-2-2.7-.18-3.73,5-2.94,10.24-5.52,16.2-6.09,2.89-.28,5.78-.65,8.63-1.18A12.33,12.33,0,0,0,219.43,214.64Z"/><path class="cls-4" d="M136.6,219.67a4.53,4.53,0,0,1-4,.32,23,23,0,0,0-3.45-1.07,2.65,2.65,0,0,0-3.49,1.49c-1.63,2.9-3.11,5.89-4.75,8.79a8.36,8.36,0,0,1-2.1,2.34,2,2,0,0,1-1.79.23c-.64-.51-1.44-1.44-1.37-2.11.5-5,1-10,3.75-14.46.12-.2.21-.41.35-.61,2-2.93,2.4-3.05,5.67-1.76,2.8,1.12,5.58,2.27,8.4,3.33C135.44,216.77,136.76,217.55,136.6,219.67Z"/><path class="cls-5" d="M130.38,252c-2.06-2.81-1.46-5.31.39-7.89,1.46-2,2.59-4.31,4-6.42a6.47,6.47,0,0,1,7.26-2.09c1.19.5,1,1.39.74,2.34a19.37,19.37,0,0,1-5.32,8.9c-.73.74-1.45,1.48-2.17,2.23C133.38,251,133.28,251,130.38,252Z"/><path class="cls-6" d="M141,225l-2.28,2.14-2.1-4.36,1.53-1.2Z"/><path class="cls-1" d="M329.07,268.11c.41,5.44-2.08,8.93-6.53,11.3-3.22,1.71-6.46,3.45-8.61,6.57a22.93,22.93,0,0,0-2.08,3.76c-1.44,3.23-4,3.94-6.7,1.68-4.27-3.53-8.45-7.16-12.69-10.71-2.93-2.45-3.83-5.86-4.6-9.35q-2.08-9.39-4.17-18.8c-.55-2.49.42-3.67,2.9-3.69,4,0,7.62,1.29,11.22,2.73,3.32,1.32,6.51,3,9.84,4.29,3.53,1.4,7.28,1.55,11.05,1.47a9.72,9.72,0,0,1,10.37,10.28Z"/></g></g></svg>